<?xml version="1.0"?>
<svg width="610.01886" height="618.07269" xmlns="http://www.w3.org/2000/svg" xmlns:svg="http://www.w3.org/2000/svg" xmlns:xlink="http://www.w3.org/1999/xlink">
 <defs>
  <clipPath id="clipPath2424" clipPathUnits="userSpaceOnUse">
   <path id="path2426" d="m0,841.98l595.2,0l0,-841.98l-595.2,0l0,841.98z"/>
  </clipPath>
  <clipPath id="clipPath2418" clipPathUnits="userSpaceOnUse">
   <path id="path2420" clip-rule="evenodd" d="m567.48,61.011l-540,0l0,720l540,0l0,-720z"/>
  </clipPath>
  <symbol id="svg_2" viewBox="0 0 99.442 99.443" xmlns="http://www.w3.org/2000/svg" xmlns:xlink="http://www.w3.org/1999/xlink">
   <g id="svg_1">
    <g id="svg_9">
     <path id="svg_10" d="m19.097,54.071c-4.175,0 -7.561,3.383 -7.561,7.56c0,0.324 0.026,0.641 0.066,0.951c0.469,3.729 3.642,6.611 7.494,6.611c3.959,0 7.202,-3.042 7.53,-6.916c0.018,-0.214 0.033,-0.428 0.033,-0.646c0.001,-4.177 -3.384,-7.56 -7.562,-7.56zm-3.787,4.711l1.543,1.543c-0.121,0.206 -0.214,0.429 -0.274,0.665l-2.174,0c0.113,-0.825 0.428,-1.575 0.905,-2.208zm-0.913,3.516l2.189,0c0.062,0.233 0.153,0.454 0.274,0.656l-1.546,1.546c-0.476,-0.629 -0.801,-1.381 -0.917,-2.202zm4.046,4.03c-0.818,-0.112 -1.564,-0.434 -2.193,-0.908l1.537,-1.538c0.202,0.118 0.424,0.205 0.656,0.266l0,2.18zm0,-7.212c-0.238,0.062 -0.461,0.157 -0.668,0.279l-1.541,-1.541c0.633,-0.48 1.385,-0.8 2.209,-0.913l0,2.175zm1.309,-2.175c0.826,0.113 1.577,0.433 2.209,0.914l-1.54,1.54c-0.207,-0.122 -0.43,-0.218 -0.669,-0.279l0,-2.175zm0,9.387l0,-2.182c0.233,-0.061 0.454,-0.147 0.657,-0.268l1.538,1.54c-0.63,0.476 -1.375,0.796 -2.195,0.91zm3.133,-1.824l-1.551,-1.551c0.12,-0.203 0.22,-0.42 0.282,-0.655l2.172,0c-0.115,0.821 -0.424,1.577 -0.903,2.206zm-1.268,-3.514c-0.06,-0.236 -0.153,-0.459 -0.274,-0.665l1.543,-1.543c0.478,0.633 0.792,1.383 0.905,2.208l-2.174,0z"/>
     <path id="svg_11" d="m83.965,54.071c-4.176,0 -7.561,3.383 -7.561,7.56c0,0.324 0.025,0.641 0.065,0.951c0.468,3.729 3.643,6.611 7.494,6.611c3.958,0 7.201,-3.042 7.53,-6.916c0.018,-0.214 0.031,-0.428 0.031,-0.646c0.002,-4.177 -3.382,-7.56 -7.559,-7.56zm-3.788,4.711l1.543,1.543c-0.12,0.206 -0.214,0.429 -0.273,0.665l-2.175,0c0.113,-0.825 0.428,-1.575 0.905,-2.208zm-0.912,3.516l2.19,0c0.062,0.233 0.152,0.454 0.272,0.656l-1.545,1.546c-0.477,-0.629 -0.802,-1.381 -0.917,-2.202zm4.045,4.03c-0.818,-0.112 -1.563,-0.434 -2.192,-0.908l1.537,-1.538c0.201,0.118 0.424,0.205 0.655,0.266l0,2.18zm0,-7.212c-0.237,0.062 -0.461,0.157 -0.669,0.279l-1.541,-1.541c0.634,-0.48 1.385,-0.8 2.209,-0.913l0.001,2.175l0,0zm1.31,-2.175c0.824,0.113 1.576,0.433 2.209,0.914l-1.541,1.54c-0.207,-0.122 -0.431,-0.218 -0.668,-0.279l0,-2.175zm0,9.387l0,-2.182c0.231,-0.061 0.454,-0.147 0.655,-0.268l1.538,1.54c-0.629,0.476 -1.375,0.796 -2.193,0.91zm3.132,-1.824l-1.551,-1.551c0.12,-0.203 0.22,-0.42 0.281,-0.655l2.174,0c-0.116,0.821 -0.426,1.577 -0.904,2.206zm-1.269,-3.514c-0.06,-0.236 -0.152,-0.459 -0.272,-0.665l1.542,-1.543c0.478,0.633 0.792,1.383 0.906,2.208l-2.176,0z"/>
     <path id="svg_12" d="m99.091,47.939c-0.056,-1.67 -0.516,-3.301 -1.339,-4.754l-5.43,-9.581c-0.89,-1.569 -2.521,-2.573 -4.322,-2.664c-9.1,-0.456 -37.002,-1.618 -45.786,0.744c-5.942,1.599 -20.936,11.456 -20.936,11.456s-16.497,2.555 -19.644,10.079c0,0 -1.358,0.793 -1.605,2.826c-0.127,1.046 0.183,2.634 0.525,3.965c0.375,1.456 1.582,2.552 3.067,2.783l7.16,1.122c-0.107,-0.391 -0.196,-0.788 -0.248,-1.198c-0.045,-0.354 -0.075,-0.716 -0.075,-1.087c0,-4.763 3.875,-8.637 8.639,-8.637c4.765,0 8.64,3.874 8.64,8.637c0,0.249 -0.016,0.493 -0.036,0.735c-0.072,0.844 -0.268,1.651 -0.567,2.408l0.842,0.045l47.568,-1.287c-0.061,-0.268 -0.109,-0.538 -0.145,-0.814c-0.046,-0.354 -0.074,-0.716 -0.074,-1.087c0,-4.763 3.875,-8.637 8.638,-8.637c4.765,0 8.64,3.874 8.64,8.637c0,0.249 -0.016,0.493 -0.037,0.735c-0.013,0.16 -0.041,0.315 -0.062,0.473l4.105,-0.838c1.693,-0.346 2.891,-1.86 2.831,-3.589l-0.349,-10.472zm-27.376,-15.229l1.093,10.911l-16.774,0.686l0,-11.652c4.904,-0.113 10.502,-0.062 15.681,0.055zm-42.328,12.377l-1.659,0.093c-0.451,0.025 -0.864,-0.249 -1.016,-0.675c-0.152,-0.424 -0.005,-0.897 0.358,-1.164c0.975,-0.712 2.169,-1.563 3.499,-2.462l0,2.784c-0.81,0.685 -1.182,1.424 -1.182,1.424zm4.111,-2.554c-0.105,0.004 -0.191,0.03 -0.291,0.04l0,-3.423c3.382,-2.144 7.215,-4.273 10.511,-5.34c1.5,-0.485 4.236,-0.795 7.636,-0.98l0,11.668l-14.412,0.589c0,0 -0.5,-2.664 -3.444,-2.554zm58.27,-1.058c-0.503,0.874 -1.419,1.429 -2.426,1.471l-11.852,0.484l-1.062,-10.594c4.898,0.149 8.99,0.333 11.063,0.445c0.959,0.051 1.824,0.604 2.271,1.454l2.057,3.903c0.471,0.893 0.451,1.965 -0.051,2.837z"/>
    </g>
   </g>
   <g id="svg_13"/>
   <g id="svg_14"/>
   <g id="svg_15"/>
   <g id="svg_16"/>
   <g id="svg_17"/>
   <g id="svg_18"/>
   <g id="svg_19"/>
   <g id="svg_20"/>
   <g id="svg_21"/>
   <g id="svg_22"/>
   <g id="svg_23"/>
   <g id="svg_24"/>
   <g id="svg_25"/>
   <g id="svg_26"/>
   <g id="svg_27"/>
  </symbol>
  <symbol id="svg_32" viewBox="0 0 952.1 952.1" xmlns="http://www.w3.org/2000/svg" xmlns:xlink="http://www.w3.org/1999/xlink">
   <g id="svg_5">
    <g id="svg_6">
     <path id="svg_28" d="m812.55,139.4c-43.7,-43.7 -94.6,-78 -151.3,-102c-58.7,-24.8 -121,-37.4 -185.3,-37.4c-64.2,0.1 -126.5,12.6 -185.2,37.5c-56.7,24 -107.6,58.3 -151.3,102c-43.7,43.7 -78,94.6 -102,151.3c-24.8,58.7 -37.4,121 -37.4,185.3c0,64.201 12.6,126.6 37.4,185.301c24,56.699 58.3,107.6 102,151.299c43.7,43.701 94.6,78 151.3,102c58.7,24.801 121,37.4 185.3,37.4c64.2,0 126.601,-12.6 185.3,-37.4c56.7,-24 107.601,-58.299 151.301,-102c43.699,-43.699 78,-94.6 102,-151.299c24.8,-58.701 37.399,-121 37.399,-185.301c0,-64.2 -12.6,-126.6 -37.399,-185.3c-24.101,-56.8 -58.401,-107.6 -102.101,-151.4zm-600,-31.9c4.3,-3.3 8.5,-6.8 12.9,-9.9c23.1,-16.2 48.7,-29.3 74.7,-40.2c55.4,-23.2 115.6,-35.4 175.8,-35.4c40.1,0 81.2,5.4 119.899,16c-15.3,6.2 -34,18 -65.399,44.8c-26.101,-2.8 -52.5,-2.9 -79,-0.4c-34.601,3.3 -69.4,11 -103.4,23c-30.7,10.8 -55,23.1 -71.4,32.5c-25.1,-9 -57.5,-19.6 -73.5,-24.8c2.5,0.8 7.7,-4.3 9.4,-5.6zm433.6,119l-81.4,222.2l-195.3,37.5l-161.4,-166.7c10.9,-75.6 62.7,-142.6 62.7,-142.6c0.3,-0.2 34.1,-24.6 88.3,-43.5c31.601,-11.1 63.8,-18.2 95.9,-21.2c26.2,-2.4 52.3,-2 78.1,1.1l113.1,113.2zm-606.8,233.7c-5,32.3 -6.1,65.8 -3.5,99.5c-3.9,-7.799 -7,-14.398 -9.3,-19.699c-3,-20.9 -4.5,-42.301 -4.5,-64.1c0,-67 14.5,-130.7 40.6,-188c-2.9,30 -1.5,61.1 0.6,84.7c-11.2,28.099 -19.2,57.399 -23.9,87.599zm39.5,173.101c-4.6,-16.9 -10,-41.5 -12.7,-71c-3,-33.301 -2.1,-66.4 2.9,-98.101c3.8,-24.3 9.9,-47.899 18.3,-70.6c32.9,-27.8 76.5,-44.1 100.6,-51.6l158.4,163.6l-16.6,179.3l-154.8,51.7c-39.4,-29 -71.6,-67.401 -96.1,-103.299zm470.4,259.599c-34.5,22.6 -121.7,28 -157.1,29.299c-39,-7.299 -76.9,-19.799 -112.601,-37c-31.2,-15 -60.8,-33.6 -87.8,-55.398c0.5,-0.9 -4.2,-48.602 -4,-66l156.4,-52.201l180.5,78.1l24.899,102.9c-0.198,0.201 -0.298,0.3 -0.298,0.3zm299.9,-158.3c-26.9,38.8 -59.1,74.9 -97.8,102.3c-36.3,25.6 -84.899,34.4 -128.1,41.5c-3.3,0.5 -44.6,7.299 -44.9,5.9l-24.899,-103l127.099,-132.3l168.3,-15.5c2.601,26.801 6,65.9 8,89.801c-2.6,3.799 -5.1,7.599 -7.7,11.299zm2.6,-134.6c-0.6,1 -1.2,2.1 -1.8,3.301l-167.6,15.398l-90.2,-157.799l81.6,-222.7l115.2,7.3c24.5,20.5 46.2,43.3 64.6,67.9c23,30.9 40.9,64.8 53.101,100.7c-12.801,111.201 -42.301,166.599 -54.901,185.9zm60.1,-250.2c-9.899,-19.1 -21.5,-37.5 -34.6,-55c-20.7,-27.7 -45.3,-53.2 -73.2,-75.9c-5.1,-25.3 -19.1,-65.1 -56.7,-106.9c0.7,0.5 1.4,1.1 2.101,1.6c2.3,1.7 4.5,3.5 6.8,5.2c25.9,20.4 49.5,43.5 70.4,68.9c38.8,47.3 68.1,102.2 85.3,161.1c-0.101,0.4 -0.101,0.7 -0.101,1z"/>
    </g>
   </g>
   <g id="svg_31"/>
   <g id="svg_35"/>
   <g id="svg_36"/>
   <g id="svg_37"/>
   <g id="svg_38"/>
   <g id="svg_39"/>
   <g id="svg_40"/>
   <g id="svg_41"/>
   <g id="svg_42"/>
   <g id="svg_43"/>
   <g id="svg_44"/>
   <g id="svg_45"/>
   <g id="svg_46"/>
   <g id="svg_47"/>
   <g id="svg_48"/>
  </symbol>
 </defs>
 <metadata id="metadata7">image/svg+xmlimage/svg+xml</metadata>
 <g>
  <title>Layer 1</title>
  <g id="g2436" transform="matrix(0,1.25,1.25,0,115.77125,686.26093) "/>
  <g transform="matrix(0,8.632179375,8.632179375,0,-485.2817931606251,841.4024773370793) " id="g2448">
   <path id="path2450" d="m-28.78477,95.04676c0.84499,-0.292 2.913,-1.195 2.913,-3.408c0,-2.506 -2.738,-3.35 -2.82601,-3.408l-0.262,-0.058c0,0 0.17501,2.155 0.17501,3.32c0,1.194 -0.11701,3.234 -0.17501,3.554l0.17501,0" fill-rule="evenodd" fill="#000000"/>
  </g>
  <g transform="matrix(0,8.632179375,8.632179375,0,-428.4475241556251,829.8353569745797) " id="g2452">
   <path id="path2454" d="m-28.78477,95.04676l0.058,0.524c1.602,-0.641 3.408,-1.719 3.408,-3.904c0,-2.096 -1.223,-3.116 -2.03901,-3.583l-0.204,-0.349c0,0 -0.145,3.612 -1.22299,7.312" fill-rule="evenodd" fill="#000000"/>
  </g>
  <g transform="matrix(0,8.632179375,8.632179375,0,-599.9430317987501,829.8353569745797) " id="g2456">
   <path id="path2458" d="m-28.78477,95.04676l0.058,-0.525c1.602,0.612 3.408,1.719 3.408,3.875c0,2.097 -1.281,3.234 -2.03901,3.699l-0.204,0.233c0,0 -0.145,-3.612 -1.22299,-7.282" fill-rule="evenodd" fill="#000000"/>
  </g>
  <g transform="matrix(0,8.632179375,8.632179375,0,-499.36087772124995,842.9131087277046) " id="g2460">
   <path id="path2462" d="m-28.78477,95.04676c0.495,-0.35 0.466,-0.583 0.466,-0.991c0,-0.204 0.175,-0.495 0.466,-0.495c0.233,0 0.437,0.204 0.437,0.524c0,0.758 -1.019,1.311 -1.457,1.486c0,0 -0.029,0.437 -0.029,0.554c0,0 2.331,-0.787 2.331,-2.826c0,-2.039 -2.302,-2.855 -2.302,-2.855c0,0 0.088,1.719 0.088,2.709c0,0.962 0,1.602 0,1.894" fill-rule="evenodd" fill="#fff200"/>
  </g>
  <g transform="matrix(0,8.632179375,8.632179375,0,-430.96812053312505,833.8665847427046) " id="g2464">
   <path id="path2466" d="m-28.78477,95.04676c0.378,-1.311 0.67,-2.272 0.93199,-4.486c0,0 0.233,0.058 0.204,0.553c0,0.175 -0.058,0.205 -0.058,0.292c-0.03,0.117 0.116,0.35 0.349,0.32c0.17501,-0.029 0.37901,-0.175 0.37901,-0.67c0,-0.495 -0.40801,-1.078 -0.787,-1.368c0,0 0.087,-0.292 0.087,-0.583c0,0 1.341,0.931 1.341,2.796c0,2.068 -1.836,2.826 -2.447,3.146" fill-rule="evenodd" fill="#fff200"/>
  </g>
  <g transform="matrix(0,8.632179375,8.632179375,0,-442.7855740975001,845.1747397239542) " id="g2468">
   <path id="path2470" d="m-28.78477,95.04676c-0.32001,0 -0.612,-0.087 -0.874,-0.262c0.175,-0.728 0.32,-1.545 0.495,-2.768c0.029,0 0.059,0 0.087,-0.029c0.059,0.087 0.117,0.233 0.117,0.495c0,0.175 -0.058,0.204 -0.058,0.292c-0.029,0.116 0.116,0.349 0.349,0.32c0.175,-0.029 0.379,-0.175 0.379,-0.67c0,-0.116 -0.029,-0.262 -0.058,-0.378c0.204,0.058 0.408,0.174 0.583,0.32c0.086,0.262 0.116,0.582 0.116,0.903c0,0.67 -0.175,1.194 -0.466,1.631c-0.204,0.087 -0.437,0.146 -0.67,0.146" fill-rule="evenodd" fill="#ffdf00"/>
  </g>
  <g transform="matrix(0,8.632179375,8.632179375,0,-443.035907299375,845.1747397239542) " id="g2472">
   <path id="path2474" d="m-28.78477,95.04676c-0.32001,0 -0.612,-0.087 -0.874,-0.262c0.175,-0.699 0.32,-1.515 0.466,-2.709c0.058,0 0.088,-0.029 0.146,-0.029c0.058,0.087 0.087,0.204 0.087,0.465c0,0.175 -0.058,0.205 -0.058,0.292c-0.029,0.117 0.116,0.35 0.349,0.32c0.175,-0.029 0.379,-0.175 0.379,-0.67c0,-0.116 -0.029,-0.233 -0.058,-0.378c0.233,0.087 0.437,0.203 0.611,0.35c0.058,0.261 0.088,0.553 0.088,0.873c0,0.67 -0.175,1.165 -0.437,1.603c-0.204,0.087 -0.437,0.145 -0.699,0.145" fill-rule="evenodd" fill="#ffe100"/>
  </g>
  <g transform="matrix(0,8.632179375,8.632179375,0,-443.035907299375,845.1747397239542) " id="g2476">
   <path id="path2478" d="m-28.78477,95.04676c-0.32001,0 -0.612,-0.117 -0.845,-0.292c0.146,-0.698 0.291,-1.485 0.437,-2.65c0.058,-0.029 0.116,-0.029 0.146,-0.029c0.058,0.058 0.087,0.203 0.087,0.436c0,0.175 -0.058,0.205 -0.058,0.292c-0.029,0.117 0.116,0.35 0.349,0.32c0.175,-0.029 0.379,-0.175 0.379,-0.67c0,-0.116 0,-0.233 -0.058,-0.349c0.233,0.087 0.437,0.204 0.611,0.349c0.058,0.263 0.088,0.554 0.088,0.845c0,0.641 -0.175,1.136 -0.408,1.544c-0.233,0.117 -0.466,0.204 -0.728,0.204" fill-rule="evenodd" fill="#ffe300"/>
  </g>
  <g transform="matrix(0,8.632179375,8.632179375,0,-597.672768623125,833.8665847427046) " id="g2480">
   <path id="path2482" d="m-28.78477,95.04676c0.378,1.34 0.67,2.272 0.93199,4.515c0,0 0.233,-0.088 0.204,-0.554c0,-0.204 -0.058,-0.233 -0.058,-0.291c-0.03,-0.146 0.116,-0.349 0.349,-0.321c0.17501,0 0.37901,0.147 0.37901,0.642c0,0.495 -0.40801,1.078 -0.787,1.369c0,0 0.087,0.291 0.087,0.612c0,0 1.341,-0.962 1.341,-2.826c0,-2.068 -1.836,-2.826 -2.447,-3.146" fill-rule="evenodd" fill="#fff200"/>
  </g>
  <g transform="matrix(0,8.632179375,8.632179375,0,-515.9519264800001,739.3096918689553) " id="g2484">
   <path id="path2486" d="m-28.78477,95.04676c0,7.078 -4.34,14.943 -10.63201,20.478c-0.67,0.582 -1.981,1.602 -1.981,4.02c0,2.389 2.214,5.592 6.176,5.214c2.91301,-0.292 9.467,-4.428 13.48701,-11.535c4.049,-7.108 4.922,-13.633 4.922,-18.177c0,-4.545 -0.873,-11.099 -4.922,-18.206c-4.02,-7.079 -10.574,-11.245 -13.48701,-11.506c-3.962,-0.379 -6.176,2.796 -6.176,5.214c0,2.388 1.311,3.408 1.981,3.991c6.29201,5.534 10.632,13.399 10.632,20.507" fill-rule="evenodd" fill="#fff200"/>
  </g>
  <g transform="matrix(0,8.632179375,8.632179375,0,-515.9519264800001,737.3070262539545) " id="g2488">
   <path id="path2490" d="m-28.78477,95.04676c0,3.437 -1.048,7.049 -2.854,10.516c-1.865,3.583 -4.545,6.991 -7.72001,9.758c-0.34899,0.321 -0.845,0.728 -1.282,1.398c-0.437,0.67 -0.757,1.544 -0.757,2.826c0,0.116 0,0.262 0,0.408c0.117,1.165 0.67,2.418 1.66001,3.408c0.962,0.99 2.36,1.66 4.137,1.66c0.204,0 0.40699,0 0.64099,-0.029c1.66001,-0.145 4.48601,-1.544 7.37001,-3.991c2.24299,-1.922 4.515,-4.486 6.321,-7.661c2.039,-3.554 3.262,-6.991 3.991,-10.108c0.728,-3.116 0.932,-5.913 0.932,-8.185c0,-2.302 -0.20401,-5.098 -0.932,-8.215c-0.729,-3.087 -1.952,-6.525 -3.991,-10.108c-1.806,-3.146 -4.078,-5.739 -6.321,-7.661c-2.884,-2.447 -5.71,-3.845 -7.37,-3.99c-0.234,-0.03 -0.437,-0.03 -0.641,-0.03c-1.777,0 -3.175,0.7 -4.137,1.661c-0.99,0.99 -1.543,2.272 -1.66,3.408c0,0.145 0,0.291 0,0.437c0,1.253 0.32,2.156 0.757,2.826c0.43699,0.64 0.933,1.048 1.282,1.368c3.175,2.797 5.855,6.176 7.72,9.788c1.806,3.437 2.854,7.078 2.854,10.516zm0.495,0c0,-3.525 -1.04801,-7.254 -2.884,-10.749c-1.893,-3.671 -4.602,-7.108 -7.836,-9.933c-0.349,-0.292 -0.815,-0.7 -1.19401,-1.282c-0.37899,-0.583 -0.69899,-1.398 -0.69899,-2.534c0,-0.146 0,-0.262 0.029,-0.379c0.088,-1.049 0.612,-2.214 1.486,-3.088c0.903,-0.903 2.156,-1.544 3.787,-1.544c0.204,0 0.40699,0.03 0.612,0.03c1.572,0.145 4.281,1.514 7.049,3.874c2.213,1.893 4.456,4.428 6.234,7.544c2.01,3.525 3.204,6.904 3.932,9.963c0.728,3.087 0.932,5.826 0.932,8.098c0,2.243 -0.204,5.01 -0.932,8.069c-0.728,3.059 -1.922,6.467 -3.932,9.991c-1.778,3.088 -4.021,5.623 -6.234,7.516c-2.768,2.388 -5.47701,3.728 -7.049,3.874c-0.205,0.029 -0.408,0.029 -0.612,0.029c-1.631,0 -2.884,-0.641 -3.787,-1.515c-0.87401,-0.903 -1.39801,-2.068 -1.486,-3.117c-0.029,-0.116 -0.029,-0.233 -0.029,-0.349c0,-1.165 0.32,-1.952 0.69899,-2.563c0.379,-0.583 0.845,-0.991 1.19401,-1.282c3.234,-2.826 5.943,-6.264 7.836,-9.905c1.83599,-3.524 2.884,-7.224 2.884,-10.748" fill-rule="evenodd" fill="#000000"/>
  </g>
  <text stroke="#000000" font-weight="bold" transform="rotate(47.603492736816406 102.0188674926756,440.26168823242193) matrix(2.4321193595187687,0,0,2.4321193595187687,-83.01627557445494,-317.1708871746381) " xml:space="preserve" text-anchor="middle" font-family="Sans-serif" font-size="24" y="319.75227" x="76.11836" stroke-width="0" fill="#fff200" id="svg_53">F</text>
  <text stroke="#000000" font-weight="bold" transform="rotate(47.603492736816406 95.41268157958979,440.2095947265625) matrix(2.4321193595187687,0,0,2.4321193595187687,-83.01627557445494,-317.1708871746381) " xml:space="preserve" text-anchor="middle" font-family="Sans-serif" font-size="24" y="319.74053" x="73.39918" stroke-width="0" fill="#fff200" id="svg_65">F</text>
  <text stroke="#000000" font-weight="bold" transform="rotate(38.18243408203125 121.83277893066408,466.6175842285156) matrix(2.4321193595187687,0,0,2.4321193595187687,-83.01627557445494,-317.1708871746381) " xml:space="preserve" text-anchor="middle" font-family="Sans-serif" font-size="24" y="330.58441" x="84.24306" stroke-width="0" fill="#fff200" id="svg_57">A</text>
  <g transform="matrix(0,8.632179375,8.632179375,0,-699.76555409125,652.8152545314553) " id="g2492">
   <path id="path2494" d="m-28.78477,95.04676l-0.08801,-0.087c-0.64,-0.554 -1.543,-1.341 -1.543,-3.176c0,-1.077 0.583,-2.301 1.485,-3.116c0.671,-0.612 1.836,-1.311 3.612,-1.136c2.447,0.233 8.797,4.136 12.73,11.04c3.175,5.564 4.778,11.535 4.778,17.71c0,6.147 -1.603,12.118 -4.778,17.682c-3.933,6.933 -10.28299,10.807 -12.73,11.041c-1.776,0.174 -2.941,-0.525 -3.612,-1.137c-0.902,-0.786 -1.485,-2.01 -1.485,-3.088c0,-1.864 0.903,-2.65 1.543,-3.204l0.088,-0.087c6.787,-5.942 10.982,-14.07 10.982,-21.207c0,-7.165 -4.195,-15.292 -10.982,-21.235" fill-rule="evenodd" fill="#e20e0e"/>
  </g>
  <g transform="matrix(0,8.632179375,8.632179375,0,-319.069179295,583.9131987602045) " id="g2496">
   <path id="path2498" d="m-28.78477,95.04676c-3.408,0 -6.17501,2.768 -6.17501,6.146c0,3.409 2.76701,6.176 6.17501,6.176c3.408,0 6.17599,-2.767 6.17599,-6.176c0,-3.378 -2.768,-6.146 -6.176,-6.146" fill-rule="evenodd" fill="#fff200"/>
  </g>
  <g transform="matrix(0,8.632179375,8.632179375,0,-321.33081029125003,583.9131987602045) " id="g2500">
   <path id="path2502" d="m-28.78477,95.04676c-1.776,0 -3.37901,0.728 -4.54401,1.893c-1.16499,1.137 -1.865,2.768 -1.865,4.516c0,1.777 0.70001,3.408 1.865,4.544c1.165,1.165 2.76801,1.893 4.54401,1.893c1.777,0 3.379,-0.728 4.544,-1.893c1.16499,-1.136 1.89399,-2.767 1.89399,-4.544c0,-1.748 -0.729,-3.379 -1.89399,-4.516c-1.165,-1.165 -2.767,-1.893 -4.544,-1.893zm0,0.495c1.632,0 3.117,0.67 4.195,1.748c1.07799,1.078 1.718,2.535 1.718,4.166c0,1.66 -0.64001,3.116 -1.718,4.195c-1.078,1.078 -2.563,1.718 -4.195,1.718c-1.63101,0 -3.116,-0.64 -4.16601,-1.718c-1.078,-1.079 -1.74799,-2.535 -1.74799,-4.195c0,-1.631 0.67,-3.088 1.74799,-4.166c1.05001,-1.078 2.535,-1.748 4.16601,-1.748" fill-rule="evenodd" fill="#000000"/>
  </g>
  <g transform="matrix(0,8.632179375,8.632179375,0,-818.4493883181251,584.1721641414548) " id="g2504">
   <path id="path2506" d="m-28.78477,95.04676c-3.408,0 -6.176,2.767 -6.176,6.175c0,3.408 2.768,6.176 6.176,6.176c3.408,0 6.146,-2.768 6.146,-6.176c0,-3.408 -2.738,-6.175 -6.146,-6.175" fill-rule="evenodd" fill="#fff200"/>
  </g>
  <use id="svg_50" xlink:href="#svg_32" transform="matrix(0.14148809370066096,0,0,0.14148809370066096,53.64441890821281,233.53593567500195) " y="409.20687" x="-293.9927" fill="#e20e0e"/>
  <g transform="matrix(0,8.632179375,8.632179375,0,-820.4606861125,584.1721641414548) " id="g2508">
   <path id="path2510" d="m-28.78477,95.04676c-1.77701,0 -3.37901,0.699 -4.54401,1.864c-1.16499,1.165 -1.89399,2.767 -1.89399,4.544c0,1.777 0.729,3.38 1.89399,4.545c1.165,1.165 2.767,1.893 4.54401,1.893c1.748,0 3.379,-0.728 4.544,-1.893c1.13599,-1.165 1.865,-2.768 1.865,-4.545c0,-1.777 -0.729,-3.379 -1.865,-4.544c-1.165,-1.165 -2.796,-1.864 -4.544,-1.864zm0,0.495c1.631,0 3.088,0.669 4.166,1.747c1.07799,1.049 1.748,2.535 1.748,4.166c0,1.632 -0.67001,3.117 -1.748,4.195c-1.078,1.078 -2.535,1.718 -4.166,1.718c-1.63201,0 -3.11701,-0.64 -4.19501,-1.718c-1.078,-1.078 -1.718,-2.563 -1.718,-4.195c0,-1.631 0.64,-3.117 1.718,-4.166c1.078,-1.078 2.563,-1.747 4.195,-1.747" fill-rule="evenodd" fill="#000000"/>
  </g>
  <g transform="matrix(0,8.632179375,8.632179375,0,-251.4274217125001,440.84345779895466) " id="g2512">
   <path id="path2514" d="m-28.78477,95.04676l-1.66,0.058c0.378,0.495 0.407,1.456 -0.205,2.01c-0.262,0.262 -0.698,0.408 -1.135,0.379c-0.496,-0.029 -0.99101,-0.233 -1.34,-0.612c-2.03901,-2.069 -4.049,-3.903 -4.049,-3.903c-0.321,-0.204 -0.525,-0.495 -0.61201,-0.67c-0.11699,-0.262 -0.52499,-1.165 0.524,-1.835c0.933,-0.612 2.272,-0.525 2.76701,-0.408l2.652,1.951c0.844,0.641 2.621,2.535 3.058,3.03" fill-rule="evenodd" fill-opacity="0.94118" fill="#00000f"/>
  </g>
  <g transform="matrix(0,8.632179375,8.632179375,0,-609.74918756875,292.4821908808299) " id="g2516">
   <path id="path2518" d="m-28.78477,95.04676c-0.816,2.447 -1.48601,4.66 -1.77701,7.69l1.77701,-7.69" fill-rule="evenodd" fill="#231f20"/>
  </g>
  <g transform="matrix(0,8.632179375,8.632179375,0,-609.74918756875,292.4821908808299) " id="g2520">
   <path id="path2522" d="m-28.78477,95.04676c-0.816,2.447 -1.48601,4.66 -1.74801,7.69l-0.262,0.466c-1.34,-1.689 -2.243,-3.379 -2.243,-5.039c0,-1.049 0.728,-3.176 4.457,-3.642l-0.204,0.525" fill-rule="evenodd" fill="#000000"/>
  </g>
  <g transform="matrix(0,8.632179375,8.632179375,0,-422.163297570625,292.4821908808299) " id="g2524">
   <path id="path2526" d="m-28.78477,95.04676c-0.816,-2.447 -1.48601,-4.69 -1.74801,-7.691l-0.262,-0.465c-1.34,1.689 -2.243,3.35 -2.243,5.01c0,1.048 0.728,3.175 4.457,3.641l-0.204,-0.495" fill-rule="evenodd" fill="#000000"/>
  </g>
  <g transform="matrix(0,8.632179375,8.632179375,0,-533.3026070237499,274.13017752957967) " id="g2528">
   <path id="path2530" d="m-28.78477,95.04676c-0.029,0.495 -0.058,1.631 -0.058,2.098c0,0.465 0.058,1.718 0.087,2.009l-0.029,-4.107" fill-rule="evenodd" fill="#231f20"/>
  </g>
  <g transform="matrix(0,8.632179375,8.632179375,0,-539.84579899,276.1328431445795) " id="g2532">
   <path id="path2534" d="m-28.78477,95.04676c-2.359,1.223 -3.20401,2.36 -3.20401,2.971c0,0.787 1.223,1.69 2.82601,2.418l0.378,0.145l-0.058,-0.611c-0.08801,-0.437 -0.08801,-1.602 -0.08801,-2.068c0,-0.466 0,-1.457 0.03001,-2.068l0.116,-0.787" fill-rule="evenodd" fill="#000000"/>
  </g>
  <use id="svg_33" xlink:href="#svg_32" transform="matrix(0.09225494334670954,0,0,0.09225494334670954,248.71696478433446,265.7893716639618) " y="1106.04711" x="1098.28905" fill="#e20e0e"/>
  <g transform="matrix(0,8.632179375,8.632179375,0,-632.38276189,431.02866984958024) " id="g2560">
   <path id="path2562" d="m-28.78477,95.04676l28.227,0l8.651,13.487l-8.651,13.487l-28.168,0c-0.37901,-0.408 -1.224,-1.311 -1.66,-2.039l0,-22.983c0.407,-0.583 1.398,-1.777 1.601,-1.952" fill-rule="evenodd" fill="#fff200"/>
  </g>
  <text id="svg_71" stroke="#000000" font-weight="bold" transform="rotate(-2.158055305480957 307.0158691406214,539.9231567382825) matrix(2.4321193595187687,0,0,2.4321193595187687,-83.01627557445494,-317.1708871746381) " xml:space="preserve" text-anchor="middle" font-family="Sans-serif" font-size="24" y="360.726731" x="160.3694" stroke-width="0" fill="#fff200">C</text>
  <text id="svg_72" stroke="#000000" font-weight="bold" transform="rotate(-9.492905616760254 350.995971679687,536.9193725585938) matrix(2.4321193595187687,0,0,2.4321193595187687,-83.01627557445494,-317.1708871746381) " xml:space="preserve" text-anchor="middle" font-family="Sans-serif" font-size="24" y="359.493239" x="178.460618" stroke-width="0" fill="#fff200">H</text>
  <text id="svg_75" stroke="#000000" font-weight="bold" transform="rotate(-42.15248489379883 471.9819641113281,480.9062805175782) matrix(2.4321193595187687,0,0,2.4321193595187687,-83.01627557445494,-317.1708871746381) " xml:space="preserve" text-anchor="middle" font-family="Sans-serif" font-size="24" y="336.468053" x="228.211465" stroke-width="0" fill="#fff200">C</text>
  <text id="svg_74" stroke="#000000" font-weight="bold" transform="rotate(-31.678539276123047 436.98223876953125,504.92346191406244) matrix(2.4321193595187687,0,0,2.4321193595187687,-83.01627557445494,-317.1708871746381) " xml:space="preserve" text-anchor="middle" font-family="Sans-serif" font-size="24" y="346.33599" x="213.820724" stroke-width="0" fill="#fff200">R</text>
  <text id="svg_73" stroke="#000000" font-weight="bold" transform="rotate(-21.05559539794922 395.9948425292969,525.9463500976562) matrix(2.4321193595187687,0,0,2.4321193595187687,-83.01627557445494,-317.1708871746381) " xml:space="preserve" text-anchor="middle" font-family="Sans-serif" font-size="24" y="354.970435" x="196.962999" stroke-width="0" fill="#fff200">U</text>
  <g transform="matrix(0,8.632179375,8.632179375,0,-630.371464095625,431.02866984958024) " id="g2564">
   <path id="path2566" d="m-28.78477,95.04676l28.08099,0l8.506,13.254l-8.506,13.225l-28.02199,0l0,0.524l28.168,-0.029l0.116,0l0.088,-0.116l8.681,-13.488l0.087,-0.116l-0.087,-0.146l-8.681,-13.486l-0.088,-0.117l-28.343,0l0,0.495" fill-rule="evenodd" fill="#000000"/>
  </g>
  <g transform="matrix(0,8.632179375,8.632179375,0,-401.04898681937505,433.2989330252049) " id="g2568">
   <path id="path2570" d="m-28.78477,95.04676c-0.116,-0.116 -0.029,-0.029 -0.14601,-0.146c-0.437,-0.465 -1.135,-1.223 -1.485,-1.835l-0.437,0.263c0.40801,0.64 1.107,1.427 1.544,1.922c0,0 -0.059,-0.058 0.116,0.146l0.40801,-0.35" fill-rule="evenodd" fill="#231f20"/>
  </g>
  <path id="path2572" d="m204.92792,166.46295l0,4.52775l198.39338,0l0,-4.52775l-198.39338,0z" fill-rule="nonzero" fill="#000000"/>
  <g transform="matrix(0,8.632179375,8.632179375,0,-614.2724495612501,418.9608830833295) " id="g2574">
   <path id="path2576" d="m-28.78477,95.04676c0.204,-0.292 0.52499,-0.67 0.815,-1.02c0.322,-0.437 0.67,-0.786 0.758,-0.903l-0.32,-0.378c-0.14601,0.116 -0.496,0.524 -0.845,0.961c-0.32101,0.378 -0.64101,0.757 -0.816,1.048l0.408,0.292" fill-rule="evenodd" fill="#231f20"/>
  </g>
  <path id="path2582" d="m197.13307,243.41019l0,14.57976l214.74272,0l0,-14.57976l-214.74272,0z" fill-rule="nonzero" fill="#e20e0e"/>
  <path id="path2584" d="m197.13307,177.5294l0,58.34062l214.74272,0l0,-58.34062l-214.74272,0z" fill-rule="nonzero" fill="#e20e0e"/>
  <g transform="matrix(0,8.632179375,8.632179375,0,-546.639324158125,275.63217674082944) " id="g2594">
   <path id="path2596" d="m-28.78477,95.04676c0.262,-2.971 0.90299,-4.777 1.69,-7.195c-1.02,0.204 -1.632,0.437 -2.243,0.845c0.524,-0.029 1.106,0.408 1.106,1.282c0,0.874 -0.495,1.339 -0.815,1.339c-0.291,0 -0.728,-0.174 -0.728,-0.64c0,-0.466 0.349,-0.583 0.465,-0.525c0.147,0.03 0.175,-0.087 0.20499,-0.203c0.029,-0.146 -0.175,-0.525 -0.641,-0.379c-0.495,0.146 -0.787,0.757 -0.787,1.515c0,0 -0.058,1.747 1.74801,3.961" fill-rule="evenodd" fill="#fff200"/>
  </g>
  <g transform="matrix(0,8.632179375,8.632179375,0,-423.17326255750004,290.4708930864549) " id="g2598">
   <path id="path2600" d="m-28.78477,95.04676c-0.816,-2.418 -1.427,-4.311 -1.689,-7.253c-0.962,1.339 -1.74801,2.622 -1.74801,4.02c0,0.728 0.262,1.34 0.78601,1.485c0.46699,0.146 0.67,-0.233 0.64199,-0.349c-0.059,-0.146 -0.088,-0.233 -0.20499,-0.204c-0.145,0.029 -0.465,-0.058 -0.465,-0.525c0,-0.465 0.436,-0.67 0.728,-0.67c0.291,0 0.786,0.496 0.786,1.37c0,0.845 -0.553,1.281 -1.078,1.252c0.583,0.438 1.224,0.699 2.243,0.874" fill-rule="evenodd" fill="#fff200"/>
  </g>
  <g transform="matrix(0,8.632179375,8.632179375,0,-531.0409760275,270.85858154645484) " id="g2602">
   <path id="path2604" d="m-28.78477,95.04676c0.14499,-0.087 0.233,-0.145 0.378,-0.233c-0.028,0.495 -0.058,1.631 -0.058,2.068c0,0.466 0.058,1.689 0.088,1.981c-1.02,-0.467 -2.448,-1.282 -2.448,-1.865c0,-0.116 -0.058,-0.378 0.49599,-0.845c0,0 0.23301,-0.058 0.20401,0.234c-0.058,0.378 0.32,0.524 0.524,0.495c0.466,-0.059 0.90299,-0.612 0.90299,-1.136c0,-0.524 -0.08699,-0.699 -0.08699,-0.699" fill-rule="evenodd" fill="#fff200"/>
  </g>
  <g transform="matrix(0,8.632179375,8.632179375,0,-753.0778939112502,414.43762109083) " id="g2606">
   <path id="path2608" d="m-28.78477,95.04676l-2.651,1.952c-0.496,0.117 -1.83501,0.204 -2.76701,-0.408c-1.049,-0.699 -0.642,-1.602 -0.525,-1.864c0.088,-0.146 0.29201,-0.466 0.61201,-0.641c0,0 2.06799,-1.893 4.078,-3.961c0.291,-0.263 0.81599,-0.612 1.311,-0.642c0.437,0 0.87399,0.175 1.16499,0.409c0.583,0.582 0.55301,1.573 0.175,2.068l1.66001,0.029c-0.43701,0.524 -2.214,2.389 -3.058,3.058" fill-rule="evenodd" fill="#000000"/>
  </g>
  <g transform="matrix(0,8.632179375,8.632179375,0,-515.9519264800001,380.9965581920801) " id="g2610">
   <path id="path2612" d="m-28.78477,95.04676c0,11.098 10.42899,17.419 12.26399,18.788c3.26201,2.447 5.913,5.448 5.039,8.914c-1.282,5.127 -8.856,4.836 -8.856,4.836c-0.90299,-1.224 -2.009,-3.321 -7.427,-7.137c-5.30199,-3.758 -13.19599,-12.235 -13.19599,-25.401c0,-13.196 7.894,-21.672 13.19599,-25.43c5.418,-3.816 6.52401,-5.914 7.427,-7.137c0,0 7.574,-0.262 8.856,4.836c0.874,3.466 -1.77699,6.466 -5.039,8.913c-1.835,1.369 -12.26399,7.69 -12.26399,18.818" fill-rule="evenodd" fill="#fff200"/>
  </g>
  <g transform="matrix(0,8.632179375,8.632179375,0,-515.9519264800001,378.98526039770525) " id="g2614">
   <path id="path2616" d="m-28.78477,95.04676c0,10.312 8.855,16.545 11.739,18.555c0.263,0.175 0.466,0.35 0.612,0.437c1.602,1.224 3.058,2.564 4.02,4.021c0.903,1.426 1.34,2.971 0.932,4.631c-1.165,4.544 -7.516,4.661 -8.506,4.661c-0.058,-0.117 -0.145,-0.204 -0.203,-0.32c-0.904,-1.283 -2.331,-3.351 -7.19601,-6.788c-3.05799,-2.156 -6.962,-5.884 -9.7,-11.186c-2.01,-3.845 -3.379,-8.506 -3.379,-14.011c0,-5.506 1.369,-10.196 3.379,-14.041c2.738,-5.301 6.642,-9.03 9.7,-11.156c4.865,-3.437 6.292,-5.506 7.196,-6.817c0.058,-0.087 0.145,-0.203 0.203,-0.291c0.99,-0.029 7.341,0.088 8.506,4.632c0.408,1.66 -0.029,3.204 -0.932,4.66c-0.962,1.457 -2.418,2.797 -4.02,3.991c-0.146,0.116 -0.349,0.263 -0.612,0.437c-2.884,2.039 -11.739,8.244 -11.739,18.585l0.00001,0zm0.495,0c0,-10.079 8.71,-16.168 11.535,-18.177c0.263,-0.175 0.467,-0.292 0.61199,-0.437c1.661,-1.223 3.176,-2.622 4.13701,-4.136c1.019,-1.545 1.45599,-3.234 1.019,-5.04c-1.369,-5.302 -9.11801,-5.039 -9.11801,-5.039l-0.14499,0l-0.058,0.116c-0.11701,0.146 -0.20401,0.262 -0.32101,0.437c-0.844,1.252 -2.24299,3.263 -7.049,6.641c-3.117,2.185 -7.07899,5.972 -9.87499,11.362c-2.01,3.903 -3.437,8.68 -3.437,14.273c0,5.592 1.427,10.341 3.437,14.244c2.796,5.389 6.758,9.176 9.875,11.36c4.806,3.38 6.205,5.419 7.049,6.671c0.117,0.146 0.204,0.292 0.321,0.408l0.058,0.117l0.145,0c0,0 7.749,0.291 9.118,-5.04c0.437,-1.806 0,-3.496 -1.019,-5.039c-0.961,-1.515 -2.476,-2.884 -4.137,-4.136c-0.145,-0.117 -0.349,-0.263 -0.612,-0.438c-2.825,-1.98 -11.535,-8.097 -11.535,-18.147" fill-rule="evenodd" fill="#000000"/>
  </g>
  <g id="svg_29" transform="matrix(1.0608492912116205,0,0,1.0679883962214265,258.53564603697646,293.9302297694152) ">
   <metadata>SVG Road SignsUK roadsignstransportroadsignJohn CliffJohn CliffJohn Cliffimage/svg+xmlen</metadata>
   <g id="svg_30" transform="matrix(0.7087651516051524,0,0,0.7087651516051524,241.9277999044249,285.76803647989243) ">
    <path fill="#e20e0e" fill-rule="evenodd" stroke-width="5" id="svg_7" d="m-261.02729,-437.73455c-9.6502,0.17996 -19.66589,4.12848 -19.5625,21.65625c-29.13821,12.75913 -48.94754,42.80844 -52.8125,67.9375c-0.02618,0.10938 -0.03668,0.14255 -0.0625,0.25c-13.56753,-5.14129 -17.24438,-18.11871 -12.53125,-29.90625c1.50016,-4.59982 3.16062,-7.99219 5.45865,-12.32693c0.30786,-0.69471 2.00357,-1.55927 2.63077,-1.55927c7.53226,0.38172 16.59808,-7.78109 16.59808,-18.1763c0,-10.3952 -8.44854,-18.84375 -18.84375,-18.84375c-10.3952,0 -18.72253,7.99866 -18.72253,18.39389c0.22092,2.90659 1.16165,7.34274 0.03296,9.52954c-11.25589,10.66074 -0.91892,-1.86041 -24.02918,27.26407c-23.29019,29.12448 -34.22458,78.28171 -33.625,99.53125c0.29889,3.98151 -0.13247,9.5137 0.1875,13.46875c6.24051,0.21997 8.72797,0.36301 12.75,0.34375c-0.74716,2.95227 -2.47509,31.67749 -2.75,41.875l26.25,-0.25c9.77176,-4.10406 -10.43176,-7.77215 -13.46875,-10.78125c1.36188,-8.33221 6.52079,-19.00165 8.125,-30.875l9.15625,0.09375c2.64984,10.24017 7.05277,22.02667 10.53125,31.53125c2.37979,3.46472 1.15354,6.17487 3.3125,9.65625l22.90625,0l0.09375,0c1.00833,0.0022 31.26944,0.94623 33.90625,-0.0625c2.64441,-1.0116 1.78995,-2.1651 1.03125,-3.71875c-0.91345,-2.08716 -12.04132,-5.49505 -11.875,-6.65625c4.86194,-18.24954 4.9376,-33.41974 5.625,-42.5625c4.40644,10.59964 8.17359,20.7359 12.8125,37.875c0.67569,3.24701 1.84665,10.58252 3.0625,15.0625l27,0.09375c1.05738,0.00311 2.96979,-0.97137 2.875,-2.625c-0.1752,-3.1203 -13.70568,-6.19079 -15.03125,-6.875c-0.69101,-0.32544 -0.94989,-2.2254 -1.21875,-3.625c-1.00384,-12.42731 -4.23751,-24.85861 -6.28125,-37.125c-2.68554,-11.55963 -4.79245,-23.11557 -6.65625,-35.28125c-1.10931,-10.62683 -0.55178,-24.22101 1.53125,-32.46875c2.84711,-10.15393 5.54401,-19.28241 13.46875,-28.625c2.37238,-2.2785 4.71012,-0.55621 6.78125,2.53125c9.08353,13.79984 23.59562,28.98648 37.1875,38.65625c-0.12256,0.16306 -0.29474,0.26294 -0.40625,0.4375c-0.80322,1.25745 -1.32797,2.78672 -1.6875,4.65625l4.90625,0.9375c0.27671,-1.43878 0.65006,-2.35843 1,-2.90625c0.04547,-0.07117 0.11289,-0.03317 0.15625,-0.09375c3.47046,2.65112 5.4646,4.03793 7.5,4.5625c0.00962,0.0022 0.02152,0.02896 0.03125,0.03125l-16.40625,97.03125l4.9375,0.8125l16.5,-97.65625c1.17102,-0.37363 2.37857,-1.06839 3.65625,-2.65625c0.8144,-1.4902 2.5532,-4.61541 -3.5625,-7.84375c-9.13473,-6.09179 -16.00464,-13.96484 -24.09375,-22.75c-8.78735,-10.56561 -13.83633,-20.77389 -18.5625,-32.3125c-1.37722,-7.43142 -7.27304,-13.63189 -5.40625,-21.34375c0.3126,-0.30212 0.66968,-0.68713 1,-1c1.1352,0.2598 2.31766,0.40625 3.53125,0.40625c9.24933,1.43958 18.65625,-4.91888 18.65625,-16.6875c0,-8.7095 -8.88424,-17.03125 -17.59375,-17.03125zm-94.78125,95.75c1.36978,-0.07782 2.94498,1.18421 4.90625,3.5625c3.52393,2.79987 9.01532,7.61176 14.28125,7.03125c-0.14563,3.10617 -0.13046,6.86899 0.15625,14.03125c0.73661,9.87061 5.29227,27.86139 5.40625,40.3125c0.00833,11.64609 -2.25592,34.05164 -5.1875,47.625c-1.49057,3.18353 -0.88253,5.21094 -3.96875,5.1875c-0.05642,-0.03668 -0.1369,-0.08746 -0.1875,-0.125c-4.46527,-1.94018 -10.41293,-4.27228 -13.5625,-5.5c-1.01272,-7.41601 -4.4425,-20.80151 -6,-30.53125c1.17057,0.29776 2.85901,0.08005 4.625,-0.34375c-7.14224,-37.52212 -10.79611,-45.66427 -4.1875,-76.8125c1.18476,-2.94229 2.34897,-4.35968 3.71875,-4.4375z"/>
    <title>Layer 1</title>
   </g>
  </g>
  <g transform="matrix(0,8.632179375,8.632179375,0,-515.9519264800001,372.442068431455) " id="g2618">
   <path id="path2620" d="m-28.78477,95.04676c0,10.69 9.089,17.07 12.089,19.167c0.233,0.146 0.437,0.291 0.583,0.408c3.757,2.826 5.301,5.418 4.66,7.894c-0.903,3.583 -5.825,4.02 -7.31201,4.078l-0.058,0l-0.02799,-0.058c-0.875,-1.252 -2.331,-3.35 -7.37101,-6.904c-3,-2.097 -12.758,-10.137 -12.758,-24.585c0,-14.478 9.787,-22.488 12.758,-24.615c4.982,-3.524 6.526,-5.709 7.34101,-6.904l0.03,-0.028l0.058,0c1.485,0.028 6.437,0.495 7.34,4.048c0.641,2.476 -0.903,5.069 -4.66,7.895c-0.146,0.116 -0.35001,0.262 -0.583,0.437c-3,2.068 -12.089,8.447 -12.089,19.167" fill-rule="evenodd" fill="#e20e0e"/>
  </g>
  <g transform="matrix(0,8.632179375,8.632179375,0,-290.66067697187515,393.56501136207953) " id="g2662">
   <path id="path2664" d="m-28.78477,95.04676c-0.35001,-0.058 -1.89401,-0.203 -2.68,0.379c-0.758,0.553 -0.49501,1.02 -0.37901,1.281c0.029,0.147 0.262,0.496 0.729,0.554c0.232,0.029 0.582,-0.029 0.845,-0.233c0.495,-0.349 0.815,-1.194 0.815,-1.194c0,0 2.097,1.078 4.166,3.321l1.398,0c-2.971,-3.088 -4.894,-4.108 -4.894,-4.108" fill-rule="evenodd" fill="#fff200"/>
  </g>
  <g transform="matrix(0,8.632179375,8.632179375,0,-277.08225881500016,389.79274897520474) " id="g2666">
   <path id="path2668" d="m-28.78477,95.04676c0.52499,0.292 1.806,1.078 3.641,3.03c0.321,0.32 0.553,1.136 0.058,1.573c-0.203,0.175 -0.495,0.292 -0.815,0.262c-0.37901,0 -0.816,-0.233 -0.991,-0.466c-0.349,-0.379 -2.038,-2.069 -3.35001,-3.262c0.23401,-0.03 0.642,-0.233 0.642,-0.233c0.232,-0.175 0.553,-0.35 0.81501,-0.904" fill-rule="evenodd" fill="#fff200"/>
  </g>
  <g transform="matrix(0,8.632179375,8.632179375,0,-775.7114682325,435.05989761770525) " id="g2670">
   <path id="path2672" d="m-28.78477,95.04676l-1.311,0c-2.097,2.272 -4.16501,3.321 -4.16501,3.321c0,0 -0.321,-0.816 -0.816,-1.195c-0.262,-0.174 -0.612,-0.261 -0.845,-0.233c-0.466,0.088 -0.699,0.437 -0.729,0.554c-0.116,0.262 -0.378,0.757 0.379,1.282c0.787,0.582 2.301,0.437 2.651,0.349c0,0 1.86501,-1.048 4.836,-4.078" fill-rule="evenodd" fill="#fff200"/>
  </g>
  <text stroke="#000000" font-weight="bold" transform="rotate(-45 84.67414093017581,216.8778076171875) matrix(2.4321193595187687,0,0,2.4321193595187687,-83.01627557445494,-317.1708871746381) " xml:space="preserve" text-anchor="middle" font-family="Sans-serif" font-size="24" id="svg_52" y="227.91591" x="68.92888" stroke-width="0" fill="#fff200">O</text>
  <g transform="matrix(0,8.632179375,8.632179375,0,-754.07922671875,389.79274897520474) " id="g2674">
   <path id="path2676" d="m-28.78477,95.04676c0.52499,-0.292 1.806,-1.078 3.641,-3.03c0.321,-0.32 0.553,-1.106 0.058,-1.573c-0.203,-0.175 -0.495,-0.291 -0.815,-0.262c-0.37901,0 -0.816,0.234 -0.991,0.466c-0.349,0.379 -2.038,2.069 -3.35001,3.263c0.23401,0.029 0.642,0.233 0.642,0.233c0.232,0.175 0.553,0.378 0.81501,0.903" fill-rule="evenodd" fill="#fff200"/>
  </g>
  <g transform="matrix(0,8.632179375,8.632179375,0,-308.512023919375,584.1721641414548) " id="g2694">
   <path id="path2696" d="m-28.78477,95.04676c-1.369,0 -2.651,0.554 -3.554,1.486c-0.903,0.903 -1.486,2.155 -1.486,3.554c0,1.398 0.583,2.651 1.486,3.554c0.903,0.932 2.185,1.485 3.554,1.485c1.398,0 2.68,-0.553 3.583,-1.485c0.903,-0.903 1.486,-2.156 1.486,-3.554c0,-1.399 -0.583,-2.651 -1.486,-3.554c-0.903,-0.932 -2.185,-1.486 -3.583,-1.486zm0,0.059c1.39799,0 2.651,0.553 3.55399,1.456c0.903,0.903 1.457,2.155 1.457,3.525c0,1.369 -0.55399,2.621 -1.457,3.524c-0.90299,0.903 -2.156,1.457 -3.554,1.457c-1.369,0 -2.622,-0.554 -3.525,-1.457c-0.903,-0.903 -1.456,-2.155 -1.456,-3.524c0,-1.37 0.553,-2.622 1.456,-3.525c0.903,-0.903 2.156,-1.456 3.525,-1.456" fill-rule="evenodd" fill="#ffe600"/>
  </g>
  <use id="svg_3" xlink:href="#svg_2" transform="matrix(0.23658067048378822,0,0,0.23658067048378822,419.74668935327804,308.8084588510908) " y="-732.02848" x="-814.13692" fill="#fff200"/>
  <g id="svg_4"/>
  <g id="svg_8"/>
  <g id="svg_34"/>
  <use id="svg_49" xlink:href="#svg_32" transform="matrix(0.09858772898674412,0,0,0.09700404593088874,234.83335642736762,251.43192544049145) " y="1261.00625" x="1172.57562" fill="#e20e0e"/>
  <use id="svg_51" xlink:href="#svg_32" transform="matrix(0.14148809370066096,0,0,0.14148809370066096,53.64441890821281,233.53593567500195) " y="409.20687" x="3239.87356" fill="#e20e0e"/>
  <text id="svg_54" stroke="#000000" font-weight="bold" transform="rotate(-45 120.69329833984375,180.28854370117188) matrix(2.4321193595187687,0,0,2.4321193595187687,-83.01627557445494,-317.1708871746381) " xml:space="preserve" text-anchor="middle" font-family="Sans-serif" font-size="24" y="212.82483" x="83.73079" stroke-width="0" fill="#fff200">L</text>
  <text id="svg_56" stroke="#000000" font-weight="bold" transform="rotate(-31.303220748901367 209.63545227050776,101.25308990478514) matrix(2.4321193595187687,0,0,2.4321193595187687,-83.01627557445494,-317.1708871746381) " xml:space="preserve" text-anchor="middle" font-family="Sans-serif" font-size="24" y="180.34287" x="120.32439" stroke-width="0" fill="#fff200">P</text>
  <text id="svg_55" stroke="#000000" font-weight="bold" transform="rotate(-45.466217041015625 151.6804656982422,147.33160400390622) matrix(2.4321193595187687,0,0,2.4321193595187687,-83.01627557445494,-317.1708871746381) " xml:space="preserve" text-anchor="middle" font-family="Sans-serif" font-size="24" y="199.25642" x="96.47687" stroke-width="0" fill="#fff200">D</text>
  <text id="svg_58" stroke="#000000" font-weight="bold" transform="rotate(-14.147195816040039 254.59594726562483,87.22148895263682) matrix(2.4321193595187687,0,0,2.4321193595187687,-83.01627557445494,-317.1708871746381) " xml:space="preserve" text-anchor="middle" font-family="Sans-serif" font-size="24" y="174.58658" x="138.82677" stroke-width="0" fill="#fff200">E</text>
  <text id="svg_59" stroke="#000000" font-weight="bold" transform="rotate(-3.09565806388855 303.5767211914062,83.21751403808588) matrix(2.4321193595187687,0,0,2.4321193595187687,-83.01627557445494,-317.1708871746381) " xml:space="preserve" text-anchor="middle" font-family="Sans-serif" font-size="24" y="172.94192" x="158.9738" stroke-width="0" fill="#fff200">O</text>
  <text id="svg_60" stroke="#000000" font-weight="bold" transform="rotate(11.668807029724121 352.59655761718756,90.21858978271482) matrix(2.4321193595187687,0,0,2.4321193595187687,-83.01627557445494,-317.1708871746381) " xml:space="preserve" text-anchor="middle" font-family="Sans-serif" font-size="24" y="175.82007" x="179.12084" stroke-width="0" fill="#fff200">P</text>
  <text id="svg_63" stroke="#000000" font-weight="bold" transform="rotate(47.603492736816406 490.3996887207031,183.13070678710938) matrix(2.4321193595187687,0,0,2.4321193595187687,-83.01627557445494,-317.1708871746381) " xml:space="preserve" text-anchor="middle" font-family="Sans-serif" font-size="24" y="214.041" x="235.8148" stroke-width="0" fill="#fff200">F.</text>
  <text id="svg_62" stroke="#000000" font-weight="bold" transform="rotate(38.46027374267578 438.53216552734386,131.29942321777338) matrix(2.4321193595187687,0,0,2.4321193595187687,-83.01627557445494,-317.1708871746381) " xml:space="preserve" text-anchor="middle" font-family="Sans-serif" font-size="24" y="192.6778" x="214.48095" stroke-width="0" fill="#fff200">E</text>
  <text id="svg_61" stroke="#000000" font-weight="bold" transform="rotate(25.436098098754883 396.58468627929693,107.23918151855466) matrix(2.4321193595187687,0,0,2.4321193595187687,-83.01627557445494,-317.1708871746381) " xml:space="preserve" text-anchor="middle" font-family="Sans-serif" font-size="24" y="182.80986" x="197.21206" stroke-width="0" fill="#fff200">L</text>
  <text id="svg_64" stroke="#000000" font-weight="bold" transform="rotate(46.9153938293457 527.3342895507811,222.24838256835943) matrix(2.4321193595187687,0,0,2.4321193595187687,-83.01627557445494,-317.1708871746381) " xml:space="preserve" text-anchor="middle" font-family="Sans-serif" font-size="24" y="230.0764" x="251.02786" stroke-width="0" fill="#fff200">C.</text>
  <text id="svg_67" stroke="#000000" font-weight="bold" transform="rotate(39.92323684692383 136.99551391601568,478.93017578125006) matrix(2.4321193595187687,0,0,2.4321193595187687,-83.01627557445494,-317.1708871746381) " xml:space="preserve" text-anchor="middle" font-family="Sans-serif" font-size="24" y="335.645725" x="90.471515" stroke-width="0" fill="#fff200">A</text>
  <text id="svg_70" stroke="#000000" font-weight="bold" transform="rotate(20.141393661499023 236.0093841552736,531.90478515625) matrix(2.4321193595187687,0,0,2.4321193595187687,-83.01627557445494,-317.1708871746381) " xml:space="preserve" text-anchor="middle" font-family="Sans-serif" font-size="24" y="357.437419" x="131.176754" stroke-width="0" fill="#fff200">S</text>
  <text id="svg_69" stroke="#000000" font-weight="bold" transform="rotate(23.716047286987305 201.00967407226554,519.9342041015625) matrix(2.4321193595187687,0,0,2.4321193595187687,-83.01627557445494,-317.1708871746381) " xml:space="preserve" text-anchor="middle" font-family="Sans-serif" font-size="24" y="352.503451" x="116.786013" stroke-width="0" fill="#fff200">L</text>
  <text id="svg_68" stroke="#000000" font-weight="bold" transform="rotate(32.523231506347656 168.99969482421872,502.8999633789062) matrix(2.4321193595187687,0,0,2.4321193595187687,-83.01627557445494,-317.1708871746381) " xml:space="preserve" text-anchor="middle" font-family="Sans-serif" font-size="24" y="345.513662" x="103.628764" stroke-width="0" fill="#fff200">L</text>
  <text stroke="#000000" font-weight="bold" transform="rotate(46.80775451660156 111.17326354980472,452.17687988281244) matrix(2.4321193595187687,0,0,2.4321193595187687,-83.01627557445494,-317.1708871746381) " xml:space="preserve" text-anchor="middle" font-family="Sans-serif" font-size="24" y="324.643502" x="79.852847" stroke-width="0" fill="#fff200" id="svg_66">F</text>
  <text id="svg_76" stroke="#000000" font-weight="bold" transform="rotate(-46.520347595214844 503.98718261718744,449.9163513183595) matrix(2.4321193595187687,0,0,2.4321193595187687,-83.01627557445494,-317.1708871746381) " xml:space="preserve" text-anchor="middle" font-family="Sans-serif" font-size="24" y="323.721968" x="241.368714" stroke-width="0" fill="#fff200">H</text>
 </g>
</svg>